HIERARCHY
ROOT hip
{
  OFFSET 0 0 0
  CHANNELS 6 Xposition Yposition Zposition Zrotation Yrotation Xrotation
  JOINT abdomen
  {
    OFFSET 0 20.6881 -0.73152
    CHANNELS 3 Zrotation Xrotation Yrotation
    JOINT chest
    {
      OFFSET 0 11.7043 -0.48768
      CHANNELS 3 Zrotation Xrotation Yrotation
      JOINT neck
      {
        OFFSET 0 22.1894 -2.19456
        CHANNELS 3 Zrotation Xrotation Yrotation
        JOINT head
        {
          OFFSET -0.24384 7.07133 1.2192
          CHANNELS 3 Zrotation Xrotation Yrotation
          JOINT leftEye
          {
            OFFSET 4.14528 8.04674 8.04672
            CHANNELS 3 Zrotation Xrotation Yrotation
            End Site
            {
              OFFSET 1 0 0
            }
          }
          JOINT rightEye
          {
            OFFSET -3.6576 8.04674 8.04672
            CHANNELS 3 Zrotation Xrotation Yrotation
            End Site
            {
              OFFSET 1 0 0
            }
          }
        }
      }
      JOINT rCollar
      {
        OFFSET -2.68224 19.2634 -4.8768
        CHANNELS 3 Zrotation Xrotation Yrotation
        JOINT rShldr
        {
          OFFSET -8.77824 -1.95073 1.46304
          CHANNELS 3 Zrotation Xrotation Yrotation
          JOINT rForeArm
          {
            OFFSET -28.1742 -1.7115 0.48768
            CHANNELS 3 Zrotation Xrotation Yrotation
            JOINT rHand
            {
              OFFSET -22.5879 0.773209 7.07136
              CHANNELS 3 Zrotation Xrotation Yrotation
              JOINT rThumb1
              {
                OFFSET -1.2192 -0.487915 3.41376
                CHANNELS 3 Zrotation Xrotation Yrotation
                JOINT rThumb2
                {
                  OFFSET -3.37035 -0.52449 3.41376
                  CHANNELS 3 Zrotation Xrotation Yrotation
                  End Site
                  {
                    OFFSET -1.78271 -1.18214 1.43049
                  }
                }
              }
              JOINT rIndex1
              {
                OFFSET -7.75947 0.938293 5.60832
                CHANNELS 3 Zrotation Xrotation Yrotation
                JOINT rIndex2
                {
                  OFFSET -2.54057 -0.884171 1.56538
                  CHANNELS 3 Zrotation Xrotation Yrotation
                  End Site
                  {
                    OFFSET -1.62519 -0.234802 1.16502
                  }
                }
              }
              JOINT rMid1
              {
                OFFSET -8.24714 1.18213 3.41376
                CHANNELS 3 Zrotation Xrotation Yrotation
                JOINT rMid2
                {
                  OFFSET -3.10165 -0.590103 1.0647
                  CHANNELS 3 Zrotation Xrotation Yrotation
                  End Site
                  {
                    OFFSET -2.48547 -0.328903 0.83742
                  }
                }
              }
              JOINT rRing1
              {
                OFFSET -8.82822 0.546677 1.51678
                CHANNELS 3 Zrotation Xrotation Yrotation
                JOINT rRing2
                {
                  OFFSET -2.60934 -0.819778 -0.0198488
                  CHANNELS 3 Zrotation Xrotation Yrotation
                  End Site
                  {
                    OFFSET -2.33842 -0.294052 0.168128
                  }
                }
              }
              JOINT rPinky1
              {
                OFFSET -8.27202 -0.0477905 -0.4584
                CHANNELS 3 Zrotation Xrotation Yrotation
                JOINT rPinky2
                {
                  OFFSET -1.82734 -0.647385 -0.700984
                  CHANNELS 3 Zrotation Xrotation Yrotation
                  End Site
                  {
                    OFFSET -1.69225 -0.51767 -0.607171
                  }
                }
              }
            }
          }
        }
      }
      JOINT lCollar
      {
        OFFSET 2.68224 19.2634 -4.8768
        CHANNELS 3 Zrotation Xrotation Yrotation
        JOINT lShldr
        {
          OFFSET 8.77824 -1.95073 1.46304
          CHANNELS 3 Zrotation Xrotation Yrotation
          JOINT lForeArm
          {
            OFFSET 28.1742 -1.7115 0.48768
            CHANNELS 3 Zrotation Xrotation Yrotation
            JOINT lHand
            {
              OFFSET 22.5879 0.773209 7.07136
              CHANNELS 3 Zrotation Xrotation Yrotation
              JOINT lThumb1
              {
                OFFSET 1.2192 -0.487915 3.41376
                CHANNELS 3 Zrotation Xrotation Yrotation
                JOINT lThumb2
                {
                  OFFSET 3.37035 -0.52449 3.41376
                  CHANNELS 3 Zrotation Xrotation Yrotation
                  End Site
                  {
                    OFFSET 1.78271 -1.18214 1.43049
                  }
                }
              }
              JOINT lIndex1
              {
                OFFSET 7.75947 0.938293 5.60832
                CHANNELS 3 Zrotation Xrotation Yrotation
                JOINT lIndex2
                {
                  OFFSET 2.54057 -0.884171 1.56538
                  CHANNELS 3 Zrotation Xrotation Yrotation
                  End Site
                  {
                    OFFSET 1.62519 -0.234802 1.16502
                  }
                }
              }
              JOINT lMid1
              {
                OFFSET 8.24714 1.18213 3.41376
                CHANNELS 3 Zrotation Xrotation Yrotation
                JOINT lMid2
                {
                  OFFSET 3.10165 -0.590103 1.0647
                  CHANNELS 3 Zrotation Xrotation Yrotation
                  End Site
                  {
                    OFFSET 2.48547 -0.328903 0.83742
                  }
                }
              }
              JOINT lRing1
              {
                OFFSET 8.82822 0.546677 1.51678
                CHANNELS 3 Zrotation Xrotation Yrotation
                JOINT lRing2
                {
                  OFFSET 2.60934 -0.819778 -0.0198488
                  CHANNELS 3 Zrotation Xrotation Yrotation
                  End Site
                  {
                    OFFSET 2.33842 -0.294052 0.168128
                  }
                }
              }
              JOINT lPinky1
              {
                OFFSET 8.27202 -0.0477905 -0.4584
                CHANNELS 3 Zrotation Xrotation Yrotation
                JOINT lPinky2
                {
                  OFFSET 1.82734 -0.647385 -0.700984
                  CHANNELS 3 Zrotation Xrotation Yrotation
                  End Site
                  {
                    OFFSET 1.69225 -0.51767 -0.607171
                  }
                }
              }
            }
          }
        }
      }
    }
  }
  JOINT rButtock
  {
    OFFSET -8.77824 4.35084 1.2192
    CHANNELS 3 Zrotation Xrotation Yrotation
    JOINT rThigh
    {
      OFFSET 0 -1.70687 -2.19456
      CHANNELS 3 Zrotation Xrotation Yrotation
      JOINT rShin
      {
        OFFSET 0 -36.8199 0.73152
        CHANNELS 3 Zrotation Xrotation Yrotation
        JOINT rFoot
        {
          OFFSET 0.73152 -45.1104 -5.12064
          CHANNELS 3 Zrotation Xrotation Yrotation
          End Site
          {
            OFFSET -1.1221 -3.69964 12.103
          }
        }
      }
    }
  }
  JOINT lButtock
  {
    OFFSET 8.77824 4.35084 1.2192
    CHANNELS 3 Zrotation Xrotation Yrotation
    JOINT lThigh
    {
      OFFSET 0 -1.70687 -2.19456
      CHANNELS 3 Zrotation Xrotation Yrotation
      JOINT lShin
      {
        OFFSET 0 -36.8199 0.73152
        CHANNELS 3 Zrotation Xrotation Yrotation
        JOINT lFoot
        {
          OFFSET -0.73152 -45.1104 -5.12064
          CHANNELS 3 Zrotation Xrotation Yrotation
          End Site
          {
            OFFSET 1.1221 -3.69964 12.103
          }
        }
      }
    }
  }
}
MOTION
Frames:	4
Frame Time:	0.00833333
0.486276 86.3557 25.9781 -6.7778 -1.3779 -4.0151 8.3983 19.2366 2.05648 1.19262 -9.21741 1.06896 -1.20804 9.51624 0.852983 0.578049 4.5382 1.79253 -0.0 0.0 0.0 -0.0 0.0 0.0 7.35383e-14 9.89912e-14 -8.50736e-15 74.0603 13.7579 -2.51075 -19.824 -12.7929 38.2517 -0.108492 -9.35922 -1.32727 -7.62488e-10 5.5396e-10 -2.1248e-10 -1.31662e-09 9.51438e-10 -3.71511e-10 -7.62482e-10 5.53957e-10 -2.12495e-10 7.73091 5.47488 0.417314 -7.62487e-10 5.53957e-10 -2.12488e-10 2.90554 0.965183 0.102902 -7.62483e-10 5.53957e-10 -2.12481e-10 10.2786 0.731801 0.0259123 -7.6249e-10 5.53959e-10 -2.12481e-10 2.22167 -0.733487 -0.20892 7.34677e-14 9.89982e-14 -8.69683e-15 -80.1116 3.91086 6.47011 28.1988 -31.8772 -70.2099 0.718944 23.3213 -3.47414 -2.62329e-12 2.71078e-10 -3.33377e-10 -1.13867e-11 4.50902e-10 -5.71228e-10 -2.62462e-12 2.71081e-10 -3.33359e-10 -7.73091 5.47488 -0.417314 -2.62212e-12 2.71077e-10 -3.33368e-10 -2.90554 0.965183 -0.102902 -2.62657e-12 2.71076e-10 -3.33377e-10 -10.2786 0.731801 -0.0259123 -2.61852e-12 2.7108e-10 -3.33383e-10 -2.22167 -0.733487 0.20892 -2.03217e-16 0.0 -3.88251e-19 14.5042 -3.5884 3.83707 -0.114286 27.4612 0.593071 -4.77916 -12.599 -14.1043 2.03217e-16 0.0 3.88251e-19 6.57094 -32.213 -4.71797 0.549613 48.201 -0.887075 0.975919 -4.45284 3.13409
0.526105 86.3817 27.0267 -6.8528 -1.6653 -3.8618 8.48262 19.1991 2.07546 1.04248 -9.21849 1.05821 -1.34084 9.72093 0.874277 0.622178 4.33521 1.8382 -0.0 0.0 0.0 -0.0 0.0 0.0 1.71616e-13 -3.0417e-14 1.80991e-14 74.0103 14.2832 -2.0595 -19.9615 -12.9643 38.5841 -0.102175 -9.08328 -1.28747 -1.03462e-09 1.36174e-10 -3.35445e-10 -1.78269e-09 2.24888e-10 -5.84607e-10 -1.03461e-09 1.36167e-10 -3.35458e-10 7.73091 5.47488 0.417314 -1.03462e-09 1.36171e-10 -3.35452e-10 2.90554 0.965183 0.102902 -1.03462e-09 1.36171e-10 -3.35446e-10 10.2786 0.731801 0.0259123 -1.03462e-09 1.36172e-10 -3.35446e-10 2.22167 -0.733487 -0.20892 1.7155e-13 -3.04114e-14 1.79698e-14 -80.3614 3.99229 6.12585 27.9645 -30.3389 -67.7866 0.759842 23.9535 -3.57968 -8.43279e-10 -1.89266e-09 -2.57779e-10 -1.46123e-09 -3.29491e-09 -4.2842e-10 -8.43277e-10 -1.89266e-09 -2.57754e-10 -7.73091 5.47488 -0.417314 -8.43278e-10 -1.89266e-09 -2.5777e-10 -2.90554 0.965183 -0.102902 -8.43283e-10 -1.89266e-09 -2.5778e-10 -10.2786 0.731801 -0.0259123 -8.43277e-10 -1.89266e-09 -2.57787e-10 -2.22167 -0.733487 0.20892 -2.03217e-16 0.0 -3.88251e-19 14.5304 -2.64248 4.12788 -0.111583 26.757 0.576529 -4.8608 -12.733 -14.2211 2.03217e-16 0.0 3.88251e-19 6.69187 -32.3099 -4.99296 0.481784 45.7422 -0.784724 1.01071 -4.57466 3.34311
0.531906 86.458 28.0358 -7.041 -2.0492 -3.7658 8.51916 19.1472 2.10817 0.896132 -9.22758 1.04997 -1.3579 9.80766 0.919236 0.538479 4.25705 1.92453 -0.0 0.0 0.0 -0.0 0.0 0.0 2.33369e-13 -1.14502e-13 4.25896e-14 73.9801 14.7737 -1.64 -20.0713 -13.1017 38.8533 -0.0967084 -8.83527 -1.25175 -1.26302e-09 4.06019e-11 -3.91459e-10 -2.17497e-09 5.76635e-11 -6.81917e-10 -1.26301e-09 4.05946e-11 -3.91472e-10 7.73091 5.47488 0.417314 -1.26302e-09 4.05992e-11 -3.91466e-10 2.90554 0.965183 0.102902 -1.26302e-09 4.05995e-11 -3.9146e-10 10.2786 0.731801 0.0259123 -1.26302e-09 4.06002e-11 -3.91459e-10 2.22167 -0.733487 -0.20892 2.33293e-13 -1.14498e-13 4.24902e-14 -80.5129 4.17081 5.67682 27.6526 -28.8354 -65.3932 0.786643 24.3444 -3.64577 -1.37238e-09 -3.26588e-09 -2.94961e-10 -2.37527e-09 -5.67504e-09 -4.84989e-10 -1.37238e-09 -3.26587e-09 -2.94933e-10 -7.73091 5.47488 -0.417314 -1.37238e-09 -3.26587e-09 -2.94952e-10 -2.90554 0.965183 -0.102902 -1.37238e-09 -3.26588e-09 -2.94962e-10 -10.2786 0.731801 -0.0259123 -1.37238e-09 -3.26588e-09 -2.94971e-10 -2.22167 -0.733487 0.20892 -2.03217e-16 0.0 -3.88251e-19 14.4924 -1.71296 4.38508 -0.108705 26.0086 0.556082 -4.92812 -12.8448 -14.3105 2.03217e-16 0.0 3.88251e-19 6.72551 -32.3969 -5.452 0.418926 43.2218 -0.683568 1.05032 -4.51915 3.65011
0.625547 86.538 29.0216 -6.8883 -2.3116 -3.5656 8.46667 19.0771 2.16494 0.745284 -9.25639 1.04463 -1.18153 9.7148 1.00277 0.243716 4.3542 2.07632 -0.0 0.0 0.0 -0.0 0.0 0.0 2.42815e-13 -1.33857e-13 6.31514e-14 73.9841 15.2243 -1.25496 -20.1489 -13.1995 39.0446 -0.0923828 -8.63407 -1.22281 -1.44864e-09 4.57516e-10 -3.48026e-10 -2.49595e-09 7.7989e-10 -6.0736e-10 -1.44864e-09 4.5751e-10 -3.4804e-10 7.73091 5.47488 0.417314 -1.44864e-09 4.57514e-10 -3.48032e-10 2.90554 0.965183 0.102902 -1.44864e-09 4.57514e-10 -3.48027e-10 10.2786 0.731801 0.0259123 -1.44864e-09 4.57514e-10 -3.48026e-10 2.22167 -0.733487 -0.20892 2.42702e-13 -1.33857e-13 6.30369e-14 -80.5272 4.48045 5.07489 27.2776 -27.3356 -62.9009 0.793328 24.4276 -3.66025 -1.42723e-09 -3.43335e-09 -5.23568e-10 -2.47408e-09 -5.97372e-09 -8.79247e-10 -1.42723e-09 -3.43335e-09 -5.23541e-10 -7.73091 5.47488 -0.417314 -1.42723e-09 -3.43335e-09 -5.2356e-10 -2.90554 0.965183 -0.102902 -1.42723e-09 -3.43335e-09 -5.2357e-10 -10.2786 0.731801 -0.0259123 -1.42723e-09 -3.43335e-09 -5.23579e-10 -2.22167 -0.733487 0.20892 -2.03217e-16 0.0 -3.88251e-19 14.3487 -0.827696 4.61182 -0.106147 25.2082 0.530587 -4.98215 -12.9444 -14.3683 2.03217e-16 0.0 3.88251e-19 6.62631 -32.4682 -6.1136 0.359055 40.5522 -0.57787 1.07424 -4.11282 4.00569
